 <svg  version="1.0" xmlns="http://www.w3.org/2000/svg"  width="300.000000pt" height="290.000000pt" viewBox="0 0 300.000000 290.000000"  preserveAspectRatio="xMidYMid meet">  <g transform="translate(0.000000,290.000000) scale(0.100000,-0.100000)" fill="#ef542e" stroke="none"> <path d="M1380 2889 c-88 -7 -225 -30 -270 -47 -10 -4 68 -7 173 -7 277 -1 394 -28 465 -109 65 -74 65 -154 -2 -306 -36 -80 -156 -270 -245 -385 -25 -32 -53 -69 -61 -81 -8 -12 -87 -118 -175 -235 -211 -281 -313 -436 -389 -586 -86 -172 -134 -354 -123 -464 15 -141 82 -273 197 -389 130 -130 297 -212 523 -255 247 -47 577 8 780 129 91 55 180 124 143 112 -49 -16 -220 -56 -296 -70 -199 -35 -496 -28 -636 15 -352 108 -507 380 -384 672 66 154 167 275 573 681 319 320 353 357 459 509 158 226 161 416 11 560 -61 59 -73 67 -181 128 -136 76 -57 64 119 -19 231 -109 336 -235 347 -419 11 -202 -112 -444 -423 -823 -24 -30 -62 -76 -82 -102 -21 -26 -85 -105 -143 -175 -153 -187 -172 -214 -245 -331 -55 -89 -95 -203 -95 -273 0 -121 100 -224 259 -266 193 -50 370 -67 614 -57 l167 7 76 76 c42 42 89 95 105 117 l29 42 -54 -14 c-101 -26 -282 -53 -406 -59 -207 -11 -353 33 -413 125 -26 41 -28 51 -24 110 8 129 66 208 342 468 252 236 429 421 520 543 95 127 127 195 128 267 0 39 3 50 11 42 6 -6 11 -31 10 -55 -2 -76 -82 -221 -244 -438 -14 -19 -99 -133 -190 -255 -193 -258 -231 -317 -279 -432 -47 -111 -49 -180 -8 -234 16 -20 40 -42 55 -50 44 -22 188 -38 277 -31 178 14 280 27 293 38 18 14 132 207 132 222 0 7 -43 -1 -117 -22 -85 -25 -146 -35 -223 -39 -131 -8 -160 1 -160 49 0 39 34 77 69 77 12 0 41 -9 64 -19 85 -39 156 -45 277 -26 l109 18 35 91 c61 164 81 284 80 496 0 160 -4 202 -27 310 -14 69 -32 143 -40 165 -77 210 -196 406 -330 543 -139 142 -261 231 -427 313 -230 113 -500 166 -750 148z"/> <path d="M875 2759 c-272 -130 -471 -303 -641 -558 -41 -60 -133 -250 -144 -296 -4 -16 -19 -70 -34 -119 -124 -419 -13 -936 275 -1291 31 -38 69 -81 83 -95 l27 -24 -25 54 c-56 122 -77 294 -57 457 16 128 77 298 152 422 22 34 39 65 39 68 0 13 174 246 234 314 128 144 242 264 411 434 246 248 333 344 384 429 75 127 47 188 -104 231 -45 13 -113 18 -275 22 l-215 4 -110 -52z"/> </g> </svg> 