 <svg  version="1.0" xmlns="http://www.w3.org/2000/svg"  width="300.000000pt" height="300.000000pt" viewBox="0 0 300.000000 300.000000"  preserveAspectRatio="xMidYMid meet">  <g transform="translate(0.000000,300.000000) scale(0.100000,-0.100000)" fill="#72a442" stroke="none"> <path d="M1275 2324 c-38 -7 -75 -16 -83 -19 -8 -3 10 -28 53 -72 36 -37 65 -71 65 -76 0 -12 -131 -104 -190 -133 -30 -15 -93 -42 -140 -60 -103 -40 -94 -42 36 -8 178 46 362 150 464 261 40 43 80 103 80 120 0 9 -224 -1 -285 -13z m242 -21 c-4 -3 -10 -3 -14 0 -3 4 0 7 7 7 7 0 10 -3 7 -7z"/> <path d="M1611 2285 c-31 -46 -134 -140 -188 -172 l-42 -24 61 -77 c112 -142 256 -368 242 -382 -47 -44 -381 -219 -507 -265 -26 -10 -46 -20 -44 -22 6 -5 219 72 337 124 163 70 355 170 454 237 95 63 256 214 256 240 0 25 -119 165 -184 217 -74 58 -168 110 -255 138 -88 29 -102 27 -130 -14z"/> <path d="M2263 2303 c4 -3 10 -3 14 0 3 4 0 7 -7 7 -7 0 -10 -3 -7 -7z"/> <path d="M2333 2280 c70 -27 117 -67 139 -118 42 -94 0 -200 -131 -332 -187 -188 -534 -372 -960 -511 -171 -55 -480 -136 -635 -165 -54 -10 -94 -20 -88 -22 6 -2 60 6 119 18 349 70 653 159 932 274 36 14 68 23 72 19 10 -10 73 -173 92 -240 l16 -53 -33 -25 c-80 -61 -274 -128 -446 -155 -106 -17 -110 -18 -65 -19 66 -1 244 26 345 54 127 35 215 79 335 168 120 89 195 162 247 241 35 55 38 64 38 133 0 40 -7 100 -16 132 l-16 58 79 79 c203 201 209 364 18 455 -33 16 -67 29 -75 29 -8 -1 7 -9 33 -20z"/> <path d="M1060 2239 c-19 -20 -30 -40 -28 -53 3 -18 11 -21 53 -23 40 -2 46 0 30 8 -12 6 -27 19 -34 30 -10 17 -9 25 4 45 21 33 13 30 -25 -7z"/> <path d="M1103 1333 c4 -3 10 -3 14 0 3 4 0 7 -7 7 -7 0 -10 -3 -7 -7z"/> <path d="M2220 1273 c-77 -68 -181 -140 -261 -182 l-45 -24 4 -63 c5 -82 -8 -113 -71 -170 -96 -86 -257 -146 -445 -166 l-117 -13 70 -7 c356 -38 765 200 896 522 22 56 52 161 46 166 -1 1 -36 -28 -77 -63z"/> <path d="M1073 1323 c4 -3 10 -3 14 0 3 4 0 7 -7 7 -7 0 -10 -3 -7 -7z"/> <path d="M603 1123 c9 -2 23 -2 30 0 6 3 -1 5 -18 5 -16 0 -22 -2 -12 -5z"/> <path d="M543 1113 c9 -2 23 -2 30 0 6 3 -1 5 -18 5 -16 0 -22 -2 -12 -5z"/> <path d="M483 1103 c9 -2 23 -2 30 0 6 3 -1 5 -18 5 -16 0 -22 -2 -12 -5z"/> <path d="M408 1093 c6 -2 18 -2 25 0 6 3 1 5 -13 5 -14 0 -19 -2 -12 -5z"/> <path d="M1263 663 c4 -3 10 -3 14 0 3 4 0 7 -7 7 -7 0 -10 -3 -7 -7z"/> </g> </svg> 