<?xml version="1.0" standalone="no"?>
<!DOCTYPE svg PUBLIC "-//W3C//DTD SVG 20010904//EN"
 "http://www.w3.org/TR/2001/REC-SVG-20010904/DTD/svg10.dtd">
<svg version="1.0" xmlns="http://www.w3.org/2000/svg"
 width="300.000000pt" height="729.000000pt" viewBox="0 0 300.000000 729.000000"
 preserveAspectRatio="xMidYMid meet">
<metadata>
Created by potrace 1.10, written by Peter Selinger 2001-2011
</metadata>
<g transform="translate(0.000000,729.000000) scale(0.050000,-0.050000)"
fill="#868789" stroke="none">
<path d="M2718 14439 c-11 -7 -15 -710 -8 -1860 6 -1017 17 -4067 25 -6779
l15 -4930 195 -6 c107 -3 195 1 196 10 6 128 -4 2929 -11 3016 -6 66 -12 2468
-15 5337 l-5 5217 -186 4 c-103 1 -195 -3 -206 -9z m170 -600 c-2 -165 -8
-306 -15 -313 -7 -7 -13 128 -13 301 0 172 7 313 15 313 8 0 14 -135 13 -301z
m69 -74 l-3 -155 -13 120 c-12 110 -8 190 11 190 5 0 7 -70 5 -155z m-69
-1123 c-11 -268 -28 -214 -25 80 1 191 6 242 17 178 8 -49 12 -166 8 -258z
m88 -67 c2 -158 -5 -275 -16 -275 -10 0 -18 134 -18 315 1 173 8 297 16 275 8
-22 16 -164 18 -315z m-86 -455 c1 -176 -6 -320 -15 -320 -8 0 -15 144 -15
320 0 176 7 320 15 320 8 0 15 -144 15 -320z m85 -349 c1 -270 -4 -494 -12
-499 -27 -17 -31 105 -22 703 6 484 31 336 34 -204z m-84 -209 c0 -43 -8 -85
-16 -94 -8 -8 -15 27 -15 79 0 51 7 93 16 93 9 0 16 -35 15 -78z m-1 -242 c1
-53 -5 -93 -14 -88 -9 6 -16 56 -16 113 0 129 28 107 30 -25z m88 -251 c-5
-192 -38 -172 -38 23 0 100 7 146 21 137 12 -7 19 -74 17 -160z m-91 59 c4
-32 0 -77 -9 -98 -10 -26 -15 -3 -14 66 1 113 12 128 23 32z m8 -220 c-7 -33
2 -51 28 -59 37 -12 50 -58 22 -76 -9 -5 -14 -118 -12 -250 3 -196 -1 -242
-26 -251 -16 -7 -24 -21 -17 -32 7 -11 3 -20 -9 -20 -11 0 -21 18 -21 40 0 22
9 40 20 40 28 0 13 453 -18 529 -27 66 -13 160 20 139 12 -7 18 -34 13 -60z
m45 -1198 c0 -7 -9 -7 -20 0 -11 7 -20 3 -20 -9 0 -11 -9 -21 -20 -21 -22 0
-28 66 -8 86 13 12 68 -33 68 -56z m50 -662 c0 -323 -7 -588 -15 -588 -7 0 -7
-20 1 -45 9 -25 14 -144 12 -265 -4 -262 -4 -255 -25 -242 -19 12 -30 1705
-11 1735 32 51 38 -49 38 -595z m-8 -1213 c3 -66 3 -141 -1 -375 -3 -115 2
-225 9 -243 7 -18 3 -39 -10 -47 -13 -8 -15 -22 -4 -37 10 -13 12 -75 5 -139
-7 -64 -7 -120 0 -125 7 -4 9 -190 5 -413 -9 -422 -9 -571 3 -706 4 -44 -2
-96 -12 -115 -10 -19 -11 -35 -3 -35 9 0 15 -88 13 -195 -4 -233 -3 -225 -24
-225 -10 0 -18 608 -19 1350 -1 832 6 1350 17 1350 11 0 20 -20 21 -45z m-54
-2821 c3 -184 -36 -182 -44 3 -4 108 1 145 18 139 16 -5 25 -56 26 -142z m43
-296 c8 -41 5 -68 -11 -78 -30 -19 -30 -42 2 -61 20 -13 20 -22 -1 -48 -29
-34 -36 -3168 -8 -3218 7 -13 1 -12 -14 2 -15 14 -43 25 -63 25 -25 0 -36 15
-36 51 0 29 9 46 20 39 24 -15 25 24 28 805 1 322 -5 585 -14 585 -9 0 -10 10
-2 23 38 63 26 411 -13 386 -11 -6 -19 -2 -19 10 0 12 11 27 25 32 28 11 35
820 8 865 -8 13 -7 39 4 59 17 34 15 83 -7 180 -6 26 -1 45 11 45 12 0 18 11
13 25 -5 14 -19 23 -31 20 -13 -3 -23 9 -23 25 0 17 11 30 25 30 35 0 73 90
53 123 -10 15 -18 52 -18 82 0 77 53 71 71 -7z m41 -3503 c13 -42 16 -174 3
-186 -35 -36 -107 -26 -111 15 -17 165 67 298 108 171z"/>
<path d="M3500 13638 c-1 -48 -9 -146 -19 -218 -87 -616 -125 -2680 -64 -3470
14 -176 29 -396 35 -490 5 -93 18 -230 28 -303 10 -72 24 -207 31 -300 23
-278 46 -498 69 -667 13 -88 31 -223 41 -300 26 -212 54 -406 78 -550 12 -71
26 -161 31 -200 22 -163 54 -355 70 -420 16 -65 51 -267 110 -620 38 -233 108
-589 160 -820 26 -115 72 -318 101 -450 29 -132 60 -267 69 -300 8 -33 54
-222 100 -420 47 -198 92 -378 100 -400 21 -53 52 -170 91 -340 17 -77 40
-167 49 -200 10 -33 27 -96 38 -140 48 -188 181 -637 303 -1027 33 -103 59
-195 59 -204 0 -9 11 -42 24 -73 13 -31 25 -69 27 -86 3 -27 72 -247 109 -350
66 -185 87 -247 95 -295 5 -31 18 -60 27 -66 10 -6 18 -32 18 -58 0 -25 14
-58 31 -72 17 -14 26 -39 20 -55 -7 -16 -4 -39 7 -52 10 -12 42 -98 71 -191
29 -93 65 -196 80 -230 24 -56 48 -122 79 -217 11 -33 17 -33 97 11 47 26 123
58 170 72 47 13 85 26 85 29 0 2 -28 76 -61 164 -34 88 -78 210 -99 270 -70
206 -113 320 -127 333 -7 8 -13 30 -13 51 0 20 -8 52 -18 71 -9 19 -37 98 -61
175 -24 77 -52 156 -62 175 -11 19 -19 52 -19 74 0 21 -9 44 -20 51 -11 7 -20
30 -20 52 0 22 -34 146 -77 274 -74 228 -108 341 -147 484 -11 39 -33 111 -50
160 -17 50 -36 117 -41 150 -6 33 -17 69 -25 80 -9 11 -27 74 -41 140 -14 66
-33 129 -42 139 -9 10 -17 39 -17 64 0 24 -9 50 -20 57 -11 7 -20 43 -20 80 0
37 -9 73 -20 80 -11 7 -20 43 -20 80 0 37 -8 73 -18 79 -10 6 -23 40 -29 76
-16 98 -47 235 -73 325 -12 44 -39 148 -59 230 -20 83 -42 164 -49 180 -13 32
-65 255 -93 400 -22 114 -51 245 -79 360 -12 50 -29 131 -37 180 -8 50 -21
101 -29 113 -8 13 -16 62 -17 110 -2 48 -10 101 -18 117 -25 51 -57 182 -91
380 -32 185 -44 252 -86 478 -11 60 -16 116 -9 126 6 10 -4 35 -22 54 -17 20
-32 62 -31 94 0 59 -20 199 -59 418 -42 234 -118 767 -129 910 -4 50 -21 194
-38 320 -18 127 -37 289 -42 360 -6 72 -15 148 -21 170 -6 22 -14 112 -19 200
-6 88 -20 258 -32 377 -12 120 -18 230 -12 245 6 16 2 51 -8 79 -65 170 -65
2968 0 3138 10 28 15 62 10 76 -6 14 -1 106 11 205 30 273 34 312 45 420 l9
100 -62 2 c-35 1 -119 9 -188 18 l-125 16 0 -88z m193 -227 c-6 -17 -21 -31
-32 -31 -23 0 -29 66 -7 87 22 22 52 -21 39 -56z m-140 -1381 c-7 -18 -22 -27
-33 -20 -23 14 -27 96 -5 118 21 21 52 -60 38 -98z m8 -205 c5 -1074 0 -1233
-36 -1197 -28 29 -19 1332 9 1332 19 0 26 -39 27 -135z m35 -1323 c6 -75 -28
-81 -60 -11 -19 42 -18 55 4 69 39 24 51 12 56 -58z m17 -190 c2 -39 -3 -48
-14 -30 -10 15 -33 28 -53 28 -19 0 -38 15 -42 34 -5 27 6 34 50 30 48 -3 57
-13 59 -62z m4 -292 c7 0 13 -54 13 -120 0 -135 -30 -151 -54 -29 -9 44 -21
100 -27 127 -9 38 -4 45 22 35 18 -7 38 -13 46 -13z m4 -369 c-15 -26 -22 -71
-16 -100 5 -28 2 -51 -8 -51 -17 0 -25 45 -18 98 8 54 42 127 55 115 7 -7 1
-35 -13 -62z m59 -199 c0 -28 -75 -104 -88 -90 -5 4 4 38 19 74 27 63 69 72
69 16z m-39 -205 c-43 -55 -54 -51 -22 8 10 19 25 53 33 75 13 36 15 36 23 5
4 -19 -11 -59 -34 -88z m94 -356 c-44 -32 -46 -123 -2 -147 22 -13 25 -23 10
-32 -13 -8 -23 -55 -23 -104 0 -144 -33 -84 -46 82 -12 160 29 295 76 248 13
-14 9 -29 -15 -47z m65 -430 c0 -20 -13 -42 -30 -48 -31 -12 -45 65 -17 93 20
21 47 -5 47 -45z m-22 -206 c-30 -54 -38 -43 -37 50 0 83 1 84 28 35 19 -33
21 -61 9 -85z m139 -834 c15 -46 16 -76 3 -89 -13 -13 -20 -2 -20 34 0 30 -9
54 -20 54 -11 0 -19 34 -19 75 2 80 9 71 56 -74z m42 -310 c13 -16 20 -50 16
-75 -8 -44 -9 -44 -23 -6 -8 22 -23 56 -34 75 -22 42 7 47 41 6z m56 -196 c46
-36 26 -57 -23 -24 -33 21 -53 24 -62 10 -17 -28 -50 -7 -50 31 0 31 87 20
135 -17z m45 -586 c0 -49 -9 -89 -19 -89 -24 0 -49 129 -33 171 21 57 52 9 52
-82z m42 -185 c-12 -4 -22 -20 -22 -36 0 -15 -9 -28 -20 -28 -26 0 -26 2 14
82 29 56 36 61 43 29 4 -22 -2 -43 -15 -47z m63 -374 c-5 -27 -18 -50 -27 -50
-21 0 -25 87 -5 106 24 25 42 -5 32 -56z m75 -120 c0 -38 -9 -70 -20 -70 -11
0 -20 32 -20 70 0 39 9 70 20 70 11 0 20 -31 20 -70z m24 -209 c6 -38 -1 -63
-18 -70 -18 -7 -26 10 -26 60 0 84 32 92 44 10z m96 -329 c0 -32 -29 -72 -52
-72 -29 0 -38 43 -15 67 15 14 67 18 67 5z m48 -320 c-3 -23 -6 -51 -8 -62 -1
-11 -11 1 -21 27 -11 25 -13 70 -6 99 16 62 44 11 35 -64z m132 -721 c0 -38
-9 -74 -20 -81 -12 -7 -20 20 -20 69 0 44 9 81 20 81 11 0 20 -31 20 -69z
m100 -432 c0 -36 -8 -56 -20 -49 -11 7 -20 34 -20 61 0 27 9 49 20 49 11 0 20
-28 20 -61z m80 -140 c0 -45 -8 -76 -18 -70 -22 13 -15 151 8 151 6 0 10 -37
10 -81z m176 -658 c4 -36 -3 -76 -15 -88 -15 -15 -21 -3 -21 41 0 35 -6 78
-13 97 -9 24 -5 32 15 25 15 -5 31 -39 34 -75z m104 -521 c0 -19 20 -41 45
-49 29 -9 36 -17 19 -24 -32 -13 -96 41 -110 93 -6 26 -1 34 18 26 16 -5 28
-26 28 -46z m167 -385 c6 -36 17 -93 24 -128 8 -37 4 -68 -9 -76 -14 -9 -22
10 -23 53 0 36 -13 89 -29 116 -37 64 -37 100 -2 100 16 0 33 -28 39 -65z m93
-244 c0 -45 -45 -114 -62 -97 -15 15 -13 34 5 64 24 37 57 57 57 33z m100
-405 c0 -15 -13 -26 -30 -26 -16 0 -30 13 -30 28 0 16 -6 44 -13 63 -12 30 -8
30 30 -3 24 -20 43 -48 43 -62z m87 -266 c24 -48 25 -60 4 -60 -28 0 -51 42
-51 92 0 43 14 34 47 -32z m133 -420 c-18 -34 -28 -38 -51 -19 -41 34 -36 59
11 59 22 0 41 11 42 25 1 19 4 19 11 1 5 -13 -1 -43 -13 -66z m80 -149 c0 -67
8 -90 35 -97 27 -7 28 -10 4 -12 -62 -4 -95 44 -84 123 13 104 45 94 45 -14z"/>
<path d="M2049 13538 c-4 -7 2 -43 13 -80 35 -111 48 -2112 18 -2769 -14 -307
-29 -640 -33 -739 -4 -99 -21 -324 -37 -500 -16 -176 -34 -383 -40 -460 -6
-77 -20 -215 -31 -306 -11 -92 -15 -175 -8 -185 6 -10 2 -35 -9 -55 -10 -20
-24 -98 -30 -175 -11 -136 -37 -360 -72 -639 -18 -137 -38 -276 -79 -560 -11
-77 -30 -203 -40 -280 -11 -77 -33 -216 -49 -310 -17 -93 -44 -259 -61 -368
-18 -108 -36 -204 -41 -213 -6 -8 -12 -53 -13 -98 -2 -46 -10 -87 -18 -92 -9
-5 -22 -56 -29 -114 -8 -58 -39 -226 -70 -375 -31 -148 -80 -387 -109 -530
-29 -143 -61 -276 -72 -295 -10 -19 -19 -53 -19 -75 0 -22 -13 -92 -29 -155
-27 -108 -71 -283 -111 -445 -29 -116 -115 -460 -154 -614 -21 -79 -44 -150
-52 -158 -7 -8 -14 -35 -14 -60 0 -26 -8 -67 -18 -92 -9 -25 -36 -109 -58
-186 -22 -77 -77 -257 -121 -400 -45 -143 -90 -291 -100 -330 -36 -127 -103
-290 -123 -297 -58 -19 -5 -63 125 -105 80 -25 156 -54 169 -64 27 -20 66 -3
66 29 0 12 12 49 27 84 29 66 72 201 81 253 6 41 112 380 133 430 10 22 37
112 60 200 23 88 51 176 61 195 10 19 18 50 18 68 0 33 28 134 61 217 20 49
39 135 53 235 5 41 18 80 28 86 10 6 18 42 18 79 0 37 9 73 20 80 11 7 20 33
20 57 0 25 8 54 18 64 10 10 22 55 28 99 5 44 15 94 21 110 16 40 35 133 47
225 6 41 18 80 28 86 10 6 18 42 18 79 0 37 8 73 18 79 10 6 22 45 28 86 6 41
21 116 33 165 47 184 64 273 74 370 5 55 17 118 27 140 17 39 31 108 52 250 6
39 18 88 28 110 17 40 26 82 60 290 10 61 27 155 38 210 11 55 26 132 32 170
7 39 26 151 44 250 17 99 39 232 49 295 9 63 25 167 35 230 10 63 24 160 31
215 7 55 18 114 24 130 6 17 15 80 20 140 4 61 17 160 28 221 11 61 20 160 22
220 1 60 10 120 21 133 11 13 15 32 9 41 -5 9 -1 74 9 145 10 72 24 193 29
270 6 77 18 167 27 200 9 33 18 132 21 219 2 88 11 174 19 190 8 17 17 116 20
220 2 105 12 199 22 210 9 12 22 138 28 281 7 143 15 319 19 390 53 927 65
2997 20 3480 l-10 110 -180 0 c-100 0 -184 -5 -188 -12z m251 -277 c0 -49 -41
-141 -63 -141 -9 0 -17 18 -17 40 0 22 9 40 20 40 11 0 20 23 20 50 0 28 9 50
20 50 11 0 20 -18 20 -39z m27 -245 c6 -25 6 -66 0 -92 -16 -64 -46 -18 -47
71 0 74 30 87 47 21z m-22 -2360 c12 -36 -7 -116 -27 -116 -10 0 -18 32 -18
70 0 67 28 96 45 46z m-64 -663 c-15 -15 -21 2 -21 60 0 105 28 133 36 36 4
-41 -3 -84 -15 -96z m-43 -368 c-5 -95 -34 -135 -36 -50 -1 47 7 85 18 85 11
0 19 -16 18 -35z m-38 -1044 c0 -43 -30 -70 -58 -52 -27 16 -2 91 30 91 16 0
28 -17 28 -39z m-126 -641 c9 0 26 -23 39 -50 24 -52 16 -61 -29 -33 -39 25
-86 124 -71 149 8 12 20 3 30 -23 8 -23 23 -43 31 -43z m-3 -413 c-8 -40 -28
-94 -45 -120 -21 -33 -28 -76 -21 -137 8 -68 3 -90 -18 -90 -34 0 -16 199 26
279 15 28 27 65 27 83 0 30 17 58 36 58 4 0 2 -33 -5 -73z m-191 -1254 c0 -10
-18 -13 -40 -7 -25 6 -47 -2 -59 -23 -11 -18 -20 -23 -20 -12 -1 12 18 42 42
67 41 44 76 33 77 -25z m-158 -769 c-12 -4 -22 -40 -22 -81 0 -40 -9 -86 -20
-103 -36 -55 -22 158 14 226 34 63 35 63 42 15 5 -27 -2 -53 -14 -57z m-133
-934 c14 -39 14 -39 -17 -1 -19 23 -31 72 -29 120 l2 81 15 -80 c8 -44 21 -98
29 -120z m-165 -375 c-17 -67 -48 -61 -42 8 3 37 10 75 15 86 15 28 38 -53 27
-94z m-53 -150 c-7 -30 -18 -80 -24 -110 -7 -30 -20 -55 -29 -55 -25 0 -23 75
2 90 11 7 20 39 20 71 0 33 10 59 22 59 15 0 18 -20 9 -55z m-111 -715 c0 -38
-9 -70 -20 -70 -11 0 -20 32 -20 70 0 39 9 70 20 70 11 0 20 -31 20 -70z
m-100 -131 c0 -36 -8 -56 -20 -49 -11 7 -20 34 -20 61 0 27 9 49 20 49 11 0
20 -28 20 -61z m-11 -277 c16 -26 -10 -84 -31 -71 -24 15 -23 89 1 89 10 0 24
-8 30 -18z m-79 -162 c7 -32 6 -80 -2 -105 -19 -55 -69 88 -53 150 13 48 39
26 55 -45z m-266 -860 c-17 -55 -39 -100 -48 -100 -23 0 -20 55 4 70 11 7 20
37 20 68 0 59 16 87 41 71 8 -5 1 -54 -17 -109z"/>
</g>
</svg>
