 <svg  version="1.0" xmlns="http://www.w3.org/2000/svg"  width="300.000000pt" height="266.000000pt" viewBox="0 0 300.000000 266.000000"  preserveAspectRatio="xMidYMid meet">  <g transform="translate(0.000000,266.000000) scale(0.100000,-0.100000)" fill="#941c22" stroke="none"> <path d="M996 2622 c5 -5 68 -50 141 -101 565 -393 1043 -910 1216 -1317 86 -202 101 -395 41 -524 -55 -117 -158 -195 -314 -237 -52 -14 -103 -18 -255 -17 -112 0 -200 5 -216 11 -18 8 -29 24 -38 55 -19 66 -77 174 -140 263 -120 170 -424 443 -620 556 -160 92 -302 103 -355 28 -22 -32 -20 -55 10 -119 49 -106 371 -400 639 -582 131 -89 204 -132 211 -125 16 16 -16 47 -93 92 -286 166 -713 541 -713 627 0 29 28 22 117 -28 161 -91 428 -305 543 -435 145 -164 203 -275 204 -386 1 -83 -15 -114 -80 -147 -53 -28 -209 -29 -306 -2 -66 18 -68 19 -79 60 -31 115 -132 259 -287 407 -195 187 -378 300 -486 301 -101 1 -134 -44 -96 -129 25 -57 163 -196 320 -322 101 -82 340 -245 347 -237 11 11 -15 35 -73 69 -157 92 -433 324 -526 440 -44 56 -47 67 -15 67 32 0 141 -66 261 -160 141 -108 204 -168 276 -257 120 -149 156 -268 100 -328 -43 -46 -78 -59 -165 -59 -102 -1 -199 24 -312 79 -48 24 -89 42 -91 40 -7 -7 88 -57 188 -99 170 -72 327 -94 436 -61 75 22 134 92 134 161 0 28 12 30 71 8 141 -50 346 -69 443 -40 86 26 155 103 156 174 0 27 -9 26 99 2 349 -78 654 -86 869 -24 190 55 299 162 369 359 26 76 28 89 27 250 0 193 -10 247 -74 408 -85 211 -317 549 -561 817 -95 105 -344 352 -427 424 l-53 46 -426 0 c-235 0 -423 -4 -417 -8z"/> </g> </svg> 