 <svg  version="1.0" xmlns="http://www.w3.org/2000/svg"  width="900.000000pt" height="729.000000pt" viewBox="0 0 900.000000 729.000000"  preserveAspectRatio="xMidYMid meet">  <g transform="translate(0.000000,729.000000) scale(0.100000,-0.100000)" fill="#8e4382" stroke="none"> <path d="M4035 7205 c-33 -8 -91 -14 -130 -15 -38 0 -88 -5 -110 -11 -22 -6 -68 -15 -102 -19 -35 -5 -72 -14 -82 -20 -11 -5 -34 -10 -51 -10 -17 0 -47 -7 -67 -15 -19 -8 -47 -15 -62 -15 -14 -1 -37 -7 -51 -15 -14 -8 -38 -15 -55 -15 -16 0 -39 -7 -49 -15 -11 -8 -32 -15 -46 -15 -14 0 -35 -7 -46 -15 -10 -8 -31 -15 -45 -15 -15 0 -32 -7 -39 -15 -7 -8 -25 -15 -40 -15 -15 0 -33 -7 -40 -15 -7 -8 -23 -15 -35 -15 -12 0 -28 -7 -35 -15 -7 -8 -20 -15 -29 -15 -10 0 -26 -7 -37 -15 -10 -8 -26 -15 -35 -15 -9 0 -22 -7 -29 -15 -7 -8 -20 -15 -30 -15 -10 0 -23 -7 -30 -15 -7 -8 -21 -15 -31 -15 -9 0 -24 -7 -33 -15 -8 -8 -21 -15 -30 -15 -8 0 -18 -5 -21 -11 -4 -5 -17 -14 -28 -20 -12 -5 -29 -13 -37 -18 -8 -5 -22 -12 -30 -16 -24 -9 -47 -24 -174 -110 -65 -44 -127 -85 -138 -92 -12 -6 -23 -15 -27 -20 -3 -5 -35 -31 -71 -58 -36 -27 -72 -56 -81 -64 -9 -9 -38 -34 -65 -55 -62 -51 -283 -271 -355 -355 -29 -35 -61 -71 -70 -80 -28 -29 -139 -180 -139 -189 0 -6 -7 -12 -15 -16 -8 -3 -15 -12 -15 -21 0 -8 -5 -15 -10 -15 -6 0 -15 -10 -20 -22 -6 -13 -19 -36 -30 -53 -11 -16 -23 -37 -27 -45 -3 -8 -17 -29 -29 -45 -12 -17 -28 -41 -33 -55 -6 -14 -20 -38 -31 -55 -11 -16 -31 -54 -45 -82 -15 -29 -30 -55 -36 -58 -5 -4 -9 -14 -9 -24 0 -10 -7 -24 -15 -31 -8 -7 -15 -20 -15 -30 0 -10 -7 -23 -15 -30 -8 -7 -15 -23 -15 -35 0 -12 -7 -28 -15 -35 -8 -7 -15 -22 -15 -34 0 -11 -7 -30 -15 -40 -8 -11 -15 -29 -15 -40 0 -12 -7 -30 -15 -40 -8 -11 -15 -29 -15 -40 0 -12 -7 -30 -15 -40 -8 -11 -15 -27 -15 -37 0 -9 -7 -30 -15 -45 -8 -16 -15 -40 -15 -54 0 -14 -7 -34 -15 -44 -8 -11 -15 -34 -15 -50 -1 -17 -7 -42 -15 -56 -8 -14 -15 -43 -15 -65 0 -22 -7 -49 -15 -59 -9 -11 -15 -42 -15 -70 -1 -28 -7 -62 -15 -76 -8 -14 -14 -53 -15 -90 0 -36 -7 -90 -15 -120 -22 -81 -22 -773 0 -844 8 -27 15 -79 15 -115 1 -38 7 -77 15 -91 8 -14 15 -50 15 -80 0 -32 7 -63 15 -74 8 -11 15 -38 15 -61 0 -23 7 -50 15 -61 8 -10 15 -35 15 -54 0 -20 5 -41 11 -47 6 -6 15 -29 19 -50 9 -45 28 -98 46 -135 8 -14 14 -35 14 -45 0 -11 7 -28 15 -39 8 -10 15 -29 15 -40 0 -12 7 -27 15 -34 8 -7 15 -23 15 -36 0 -12 7 -29 15 -38 8 -8 15 -23 15 -34 0 -11 7 -25 15 -32 8 -7 15 -18 15 -25 0 -11 49 -112 80 -165 5 -8 11 -22 14 -30 4 -8 15 -28 26 -45 11 -16 24 -39 30 -50 6 -11 19 -33 30 -50 11 -16 23 -37 27 -45 3 -8 19 -31 35 -51 15 -20 28 -40 28 -44 0 -3 20 -33 45 -65 25 -32 45 -63 45 -69 0 -5 6 -14 13 -18 7 -4 35 -37 62 -73 27 -36 59 -76 71 -90 161 -180 209 -229 315 -325 122 -110 181 -160 205 -173 13 -7 24 -17 24 -22 0 -6 4 -10 9 -10 6 0 25 -14 43 -30 18 -17 36 -30 41 -30 5 0 35 -20 67 -45 32 -25 63 -45 69 -45 6 0 11 -5 11 -10 0 -6 10 -15 22 -20 13 -6 37 -19 53 -30 17 -11 39 -24 50 -30 20 -10 30 -15 70 -38 11 -7 43 -23 70 -37 52 -27 73 -38 103 -55 9 -6 24 -13 32 -16 8 -3 22 -10 30 -15 8 -5 22 -12 30 -15 8 -3 28 -12 43 -20 16 -7 34 -14 42 -14 7 0 18 -7 25 -15 7 -8 22 -15 34 -15 11 0 30 -7 40 -15 11 -8 30 -15 42 -15 12 0 27 -7 34 -15 7 -8 27 -15 45 -15 18 0 38 -7 45 -15 7 -8 27 -15 44 -15 17 0 40 -7 50 -15 11 -8 34 -15 50 -15 17 -1 42 -7 56 -15 14 -8 39 -14 56 -15 18 0 45 -7 60 -15 16 -8 45 -15 64 -15 19 0 53 -7 75 -15 22 -8 62 -14 88 -15 27 0 58 -5 69 -11 11 -6 73 -15 137 -19 64 -5 136 -13 160 -18 59 -13 433 -13 491 0 25 5 98 14 162 18 65 5 126 14 137 20 11 5 41 10 68 10 26 1 66 7 88 15 22 8 53 15 68 15 15 0 44 7 64 15 19 8 50 15 67 15 18 0 41 7 52 15 10 8 33 15 50 15 16 0 39 7 50 15 10 8 33 15 50 15 16 0 39 7 50 15 10 8 31 15 45 15 15 0 32 7 39 15 7 8 25 15 40 15 15 0 33 7 40 15 7 8 23 15 36 15 12 0 29 7 38 15 8 8 23 15 34 15 11 0 25 7 32 15 7 8 19 15 26 15 8 0 40 13 71 29 32 16 65 32 73 35 8 3 29 15 45 26 17 11 37 22 45 26 8 3 22 10 30 15 8 5 27 14 43 20 15 6 27 15 27 20 0 5 5 9 11 9 6 0 31 14 56 30 24 17 47 30 50 30 3 0 22 13 43 30 21 16 41 30 45 30 3 0 33 20 65 45 32 25 63 45 69 45 5 0 14 6 18 13 4 7 29 29 56 49 140 106 449 409 547 538 19 25 52 65 73 90 22 25 43 55 48 68 5 12 13 22 19 22 5 0 10 7 10 15 0 8 5 15 10 15 6 0 13 8 17 17 3 10 18 34 33 53 15 19 30 42 33 50 4 8 16 29 27 45 11 17 24 39 30 50 6 11 19 34 30 50 11 17 24 40 29 52 5 11 15 24 20 28 6 3 11 14 11 25 0 10 7 20 15 24 8 3 15 14 15 24 0 11 7 25 15 32 8 7 15 20 15 30 0 10 7 23 15 30 8 7 15 23 15 35 0 12 7 28 15 35 8 7 15 23 15 35 0 12 7 28 15 35 8 7 15 23 15 35 0 12 7 28 15 35 8 7 15 21 15 32 0 11 6 32 14 46 16 33 35 85 46 131 5 18 13 38 19 44 6 6 11 25 11 42 0 16 7 39 15 49 8 11 15 36 15 57 0 20 7 42 15 49 9 8 15 30 15 59 0 25 7 55 15 65 9 12 15 42 15 75 0 31 7 69 15 85 9 17 15 55 15 97 0 37 7 94 15 126 21 81 21 670 0 758 -8 33 -15 92 -15 130 0 41 -7 80 -15 95 -8 14 -14 50 -15 81 0 32 -6 63 -15 75 -8 10 -15 40 -15 65 0 25 -7 54 -15 65 -8 10 -15 35 -15 54 0 20 -6 44 -14 55 -7 11 -16 34 -18 50 -7 36 -25 89 -44 128 -8 16 -14 36 -14 46 0 9 -7 26 -15 37 -8 10 -15 31 -15 45 0 15 -7 32 -15 39 -8 7 -15 20 -15 29 0 10 -7 26 -15 37 -8 10 -15 29 -15 40 0 12 -7 27 -15 34 -8 7 -15 20 -15 30 0 10 -7 23 -15 30 -8 7 -15 20 -15 30 0 10 -7 23 -15 30 -8 7 -15 20 -15 30 0 10 -7 23 -15 30 -8 7 -15 18 -15 26 0 7 -6 19 -12 26 -7 7 -23 33 -36 58 -13 25 -32 59 -42 75 -11 17 -23 37 -27 45 -3 8 -19 31 -35 51 -15 20 -28 40 -28 43 0 8 -203 279 -236 316 -13 14 -51 57 -86 95 -80 90 -166 175 -251 250 -38 33 -91 81 -119 108 -29 26 -57 47 -65 47 -7 0 -13 3 -13 8 0 10 -136 112 -150 112 -5 0 -10 4 -10 9 0 10 -38 34 -72 47 -10 3 -18 10 -18 15 0 5 -10 14 -22 19 -34 15 -62 33 -71 48 -4 6 -17 12 -27 12 -10 0 -22 5 -25 11 -4 5 -17 15 -28 20 -12 5 -49 25 -82 44 -33 19 -67 37 -75 40 -8 4 -22 11 -30 16 -8 5 -22 12 -30 15 -8 3 -44 20 -80 36 -36 17 -81 37 -100 46 -19 8 -47 21 -62 29 -14 7 -35 13 -46 13 -11 0 -25 7 -32 15 -7 8 -27 15 -45 15 -18 0 -38 7 -45 15 -7 8 -27 15 -45 15 -18 0 -38 7 -45 15 -7 8 -29 15 -49 15 -20 1 -47 7 -61 15 -14 8 -38 15 -55 15 -16 0 -41 7 -55 15 -14 8 -41 14 -61 15 -20 0 -53 7 -72 15 -20 8 -58 15 -85 15 -26 0 -53 5 -60 12 -6 6 -62 15 -124 19 -62 4 -133 12 -158 18 -68 15 -542 12 -615 -4z m600 -194 c88 -4 173 -13 188 -19 16 -7 52 -12 81 -12 30 0 70 -7 89 -15 20 -8 53 -15 74 -15 21 -1 49 -7 63 -15 14 -8 41 -15 60 -15 19 0 46 -7 60 -15 14 -8 37 -14 51 -15 15 0 40 -7 55 -15 16 -8 38 -15 49 -15 11 0 29 -7 39 -15 11 -8 28 -15 38 -15 17 0 68 -20 120 -46 14 -8 35 -14 46 -14 11 0 25 -7 32 -15 7 -8 20 -15 30 -15 10 0 23 -7 30 -15 7 -8 23 -15 35 -15 12 0 28 -7 35 -15 7 -8 20 -15 30 -15 10 0 23 -7 30 -15 7 -8 20 -15 30 -15 10 0 23 -7 30 -15 7 -8 21 -15 31 -15 10 0 21 -5 24 -11 4 -5 17 -15 28 -20 12 -5 36 -18 52 -29 17 -11 39 -24 50 -30 29 -15 56 -32 96 -62 20 -16 40 -28 44 -28 3 0 33 -20 65 -45 32 -25 63 -45 69 -45 5 0 14 -6 18 -13 4 -7 28 -28 53 -47 25 -19 47 -37 50 -40 3 -3 34 -30 70 -60 106 -90 335 -325 400 -410 19 -25 47 -58 62 -74 15 -17 28 -34 28 -38 0 -5 33 -53 73 -106 40 -53 76 -104 80 -112 4 -8 16 -28 27 -45 11 -16 24 -40 29 -52 5 -11 15 -24 20 -28 6 -3 11 -15 11 -26 0 -11 7 -22 15 -25 8 -4 15 -14 15 -24 0 -10 7 -23 15 -30 8 -7 15 -20 15 -30 0 -10 7 -23 15 -30 8 -7 15 -20 15 -30 0 -10 7 -23 15 -30 8 -7 15 -20 15 -30 0 -10 7 -23 15 -30 8 -7 15 -19 15 -27 0 -8 6 -27 13 -41 8 -15 21 -42 30 -60 9 -19 17 -41 17 -51 0 -9 7 -26 15 -37 8 -10 15 -28 15 -40 0 -11 7 -29 15 -40 8 -10 15 -31 15 -45 0 -14 7 -34 15 -45 8 -10 15 -35 15 -55 0 -20 7 -42 15 -49 9 -7 15 -29 15 -54 0 -23 7 -51 15 -62 8 -10 15 -39 15 -64 0 -25 7 -56 15 -70 8 -14 14 -48 15 -76 0 -29 6 -74 14 -100 13 -44 30 -220 43 -444 3 -47 -2 -154 -11 -238 -9 -84 -16 -176 -16 -206 0 -29 -7 -70 -15 -89 -8 -20 -15 -61 -15 -91 0 -29 -7 -67 -15 -82 -8 -16 -15 -50 -15 -75 0 -29 -6 -51 -15 -59 -9 -7 -15 -30 -15 -54 0 -22 -7 -50 -15 -60 -8 -11 -15 -34 -15 -50 0 -17 -7 -40 -15 -50 -8 -11 -15 -34 -15 -52 0 -17 -7 -37 -15 -44 -8 -7 -15 -25 -15 -40 0 -15 -7 -33 -15 -40 -8 -7 -15 -21 -15 -32 0 -11 -6 -32 -13 -46 -15 -28 -41 -86 -51 -112 -3 -8 -10 -22 -15 -30 -26 -46 -41 -80 -41 -94 0 -9 -4 -16 -9 -16 -5 0 -14 -12 -20 -28 -6 -15 -15 -34 -20 -42 -5 -8 -12 -22 -15 -30 -4 -8 -15 -28 -26 -45 -11 -16 -24 -39 -30 -50 -6 -11 -19 -33 -30 -50 -11 -16 -23 -37 -27 -45 -3 -8 -19 -31 -35 -51 -15 -20 -28 -40 -28 -43 0 -6 -146 -205 -159 -216 -3 -3 -31 -34 -61 -70 -71 -85 -120 -138 -200 -217 -142 -140 -359 -318 -452 -370 -11 -6 -23 -15 -27 -20 -8 -10 -39 -30 -68 -43 -13 -5 -23 -14 -23 -19 0 -5 -8 -11 -17 -15 -10 -3 -31 -15 -48 -26 -16 -11 -39 -24 -50 -30 -11 -6 -47 -26 -80 -45 -57 -33 -69 -39 -97 -50 -7 -3 -20 -9 -28 -13 -43 -24 -83 -42 -95 -42 -7 0 -18 -7 -25 -15 -7 -8 -23 -15 -35 -15 -12 0 -28 -7 -35 -15 -7 -8 -22 -15 -34 -15 -11 0 -30 -7 -40 -15 -11 -8 -30 -15 -42 -15 -12 0 -27 -7 -34 -15 -7 -8 -25 -15 -39 -15 -15 0 -36 -7 -47 -15 -10 -8 -30 -15 -44 -15 -14 0 -36 -7 -50 -15 -14 -8 -36 -14 -50 -15 -14 0 -38 -7 -54 -15 -15 -8 -45 -15 -65 -15 -20 -1 -47 -7 -61 -15 -14 -8 -44 -14 -68 -15 -23 0 -59 -7 -79 -15 -19 -8 -63 -15 -97 -15 -33 0 -83 -7 -110 -15 -72 -22 -720 -22 -792 0 -27 8 -77 15 -110 15 -34 0 -78 7 -97 15 -20 8 -56 15 -79 15 -24 1 -54 7 -68 15 -14 8 -41 15 -60 15 -19 0 -46 7 -60 15 -14 8 -39 14 -55 15 -17 0 -36 5 -42 11 -6 6 -29 15 -50 19 -45 9 -98 28 -135 46 -14 8 -34 14 -45 14 -10 0 -27 7 -37 15 -11 8 -30 15 -43 15 -13 0 -23 4 -23 10 0 5 -12 13 -27 16 -16 4 -39 13 -53 20 -14 7 -32 15 -40 18 -8 3 -22 10 -30 15 -8 5 -49 26 -90 46 -109 54 -173 88 -188 103 -7 6 -18 12 -24 12 -5 0 -27 14 -48 30 -21 17 -41 30 -45 30 -4 0 -24 14 -45 30 -21 17 -41 30 -45 30 -7 0 -165 118 -180 135 -5 6 -30 27 -55 46 -110 84 -371 345 -450 449 -19 25 -42 53 -52 63 -10 10 -30 37 -44 60 -15 23 -31 47 -38 52 -17 15 -115 158 -136 200 -6 11 -19 34 -30 50 -11 17 -25 42 -31 57 -6 16 -15 28 -20 28 -5 0 -9 9 -9 19 0 11 -4 22 -9 25 -10 7 -81 148 -81 163 0 6 -7 16 -15 23 -8 7 -15 20 -15 30 0 10 -7 23 -15 30 -8 7 -15 21 -15 30 0 10 -7 32 -15 49 -8 17 -22 45 -30 62 -8 17 -15 41 -15 54 0 12 -7 28 -15 35 -8 7 -15 27 -15 45 0 18 -7 38 -15 45 -8 7 -15 29 -15 50 0 21 -7 43 -15 50 -9 7 -15 29 -15 54 0 23 -7 51 -15 62 -8 10 -15 40 -15 65 0 25 -7 54 -15 65 -9 11 -14 42 -15 77 0 32 -6 70 -14 85 -7 15 -16 77 -20 137 -4 61 -11 130 -16 155 -12 59 -12 404 0 455 5 22 12 87 16 145 3 58 12 122 20 143 8 20 14 61 14 90 1 28 7 63 15 77 8 14 14 46 15 71 0 29 6 51 15 59 9 7 15 30 15 54 0 22 7 50 15 60 8 11 15 34 15 50 0 17 7 40 15 50 8 11 15 31 15 45 0 14 7 35 15 45 8 11 15 29 15 41 0 12 7 30 15 41 8 10 15 27 15 36 0 9 6 29 14 45 19 37 73 154 80 173 3 8 10 22 15 30 5 8 12 22 15 30 3 8 10 23 16 32 5 10 15 26 20 35 6 10 14 28 19 40 6 11 15 24 20 28 6 3 11 14 11 25 0 10 7 20 15 24 8 3 15 12 15 21 0 9 5 21 10 28 6 7 39 55 73 107 74 113 205 287 261 349 53 58 324 328 362 361 16 14 49 41 74 60 25 19 52 41 62 51 18 18 146 107 184 127 13 7 24 17 24 21 0 5 8 11 18 15 9 3 29 14 43 23 15 10 53 34 85 53 33 19 68 40 79 47 11 7 32 17 48 24 15 6 27 15 27 20 0 5 9 9 19 9 11 0 26 7 35 15 8 8 24 15 36 15 11 0 23 7 26 15 4 8 16 15 29 15 12 0 28 7 35 15 7 8 23 15 35 15 12 0 28 7 35 15 7 8 21 15 32 15 11 0 32 6 46 14 48 24 102 46 117 46 7 0 26 6 42 14 43 21 93 37 141 46 24 4 48 12 54 18 7 7 28 12 48 12 19 1 46 7 60 15 14 8 44 14 68 15 23 0 59 7 79 15 19 8 59 15 88 15 29 0 72 7 95 15 27 10 84 15 159 16 64 1 145 5 181 9 36 5 103 6 150 3 47 -3 157 -8 245 -12z"/> <path d="M3716 6251 c-3 -4 -20 -11 -38 -15 -98 -19 -210 -116 -268 -230 -34 -67 -35 -71 -35 -190 1 -95 5 -128 18 -151 9 -16 17 -34 17 -40 2 -38 172 -204 210 -205 9 0 27 -8 40 -17 20 -14 47 -17 140 -18 118 0 128 2 228 53 79 41 175 160 202 252 22 75 24 184 5 238 -65 180 -145 260 -319 316 -53 17 -191 22 -200 7z m209 -68 c11 -5 38 -18 60 -29 51 -24 135 -108 159 -159 11 -22 24 -49 29 -60 20 -38 21 -171 2 -223 -41 -110 -128 -207 -220 -244 -68 -28 -156 -41 -188 -29 -16 6 -38 11 -49 11 -12 0 -49 13 -82 30 -234 113 -283 424 -98 608 48 48 90 72 182 106 24 9 183 1 205 -11z"/> <path d="M2452 5178 c-7 -7 -12 -21 -12 -32 0 -12 -7 -30 -15 -40 -8 -11 -15 -30 -15 -42 0 -13 -4 -25 -9 -29 -5 -3 -12 -19 -16 -36 -4 -17 -13 -42 -21 -57 -8 -15 -14 -34 -14 -43 0 -9 -7 -30 -15 -45 -8 -16 -15 -37 -15 -46 0 -9 -4 -19 -9 -23 -5 -3 -12 -19 -16 -36 -4 -17 -13 -42 -21 -57 -8 -15 -14 -37 -14 -49 0 -13 -4 -23 -10 -23 -5 0 -12 -17 -16 -37 -4 -21 -13 -47 -20 -58 -8 -11 -14 -27 -14 -36 0 -9 -7 -30 -15 -45 -8 -16 -15 -39 -15 -51 0 -13 -4 -23 -10 -23 -5 0 -12 -16 -16 -37 -4 -20 -13 -48 -20 -62 -8 -14 -14 -34 -14 -43 0 -9 -4 -19 -9 -23 -5 -3 -12 -19 -16 -36 -4 -17 -13 -42 -21 -57 -8 -15 -14 -37 -14 -49 0 -12 -4 -24 -9 -28 -5 -3 -12 -19 -16 -36 -4 -17 -13 -42 -21 -57 -8 -15 -14 -35 -14 -44 0 -9 -4 -19 -9 -23 -5 -3 -12 -19 -16 -36 -4 -17 -13 -42 -21 -57 -8 -15 -14 -37 -14 -49 0 -12 -4 -24 -9 -28 -5 -3 -12 -19 -16 -36 -4 -17 -13 -42 -21 -57 -8 -15 -14 -37 -14 -49 0 -12 -4 -24 -9 -28 -5 -3 -12 -19 -16 -36 -4 -17 -13 -42 -21 -57 -8 -15 -14 -35 -14 -44 0 -10 -4 -18 -10 -18 -5 0 -10 -5 -10 -11 0 -9 -11 -35 -55 -134 -7 -16 -18 -41 -23 -55 -6 -14 -20 -46 -31 -72 -12 -26 -21 -51 -21 -56 0 -5 -7 -23 -15 -38 -8 -16 -15 -36 -15 -45 0 -9 -7 -30 -15 -45 -8 -16 -15 -49 -15 -74 0 -25 -4 -60 -9 -77 -12 -42 9 -169 35 -209 44 -68 156 -154 201 -154 10 0 23 -4 29 -10 6 -6 219 -10 593 -10 505 -1 594 2 657 16 49 10 74 21 74 30 0 8 -8 14 -17 15 -18 0 -94 10 -228 28 -208 28 -309 188 -276 439 6 49 11 106 11 128 0 21 7 48 15 58 8 11 15 29 15 40 0 12 7 30 15 40 8 11 15 27 15 37 0 9 7 30 15 45 8 16 15 39 15 52 0 12 4 22 10 22 5 0 12 17 16 38 4 20 13 46 20 57 8 11 14 29 14 40 0 11 7 29 15 39 8 11 15 28 15 37 0 10 6 30 14 46 28 54 46 101 46 120 0 10 7 27 15 37 8 11 15 27 15 37 0 9 7 30 15 45 8 16 15 36 15 44 0 8 7 24 15 34 8 11 15 27 15 37 0 9 7 30 15 45 8 16 15 39 15 51 0 12 4 24 9 28 5 3 12 19 16 36 4 17 13 42 21 57 8 15 14 32 14 38 0 7 7 25 15 40 8 16 15 38 15 49 0 11 7 29 15 39 8 11 15 30 15 42 0 13 4 25 9 29 5 3 12 19 16 36 4 17 13 42 21 57 8 15 14 32 14 38 0 7 7 25 15 40 8 16 15 38 15 49 0 11 7 29 15 39 8 11 15 30 15 42 0 13 4 25 9 29 5 3 12 19 16 36 4 17 13 42 21 57 8 15 14 34 14 43 0 8 4 19 9 25 5 5 14 25 19 44 13 44 31 95 49 137 7 17 13 38 13 46 0 9 5 19 10 22 6 3 10 15 10 26 0 19 -12 19 -488 19 -366 0 -491 -3 -500 -12z m920 -42 c3 -5 -2 -25 -13 -45 -10 -20 -19 -43 -19 -51 0 -8 -7 -24 -15 -34 -8 -11 -15 -30 -15 -42 0 -13 -4 -25 -9 -29 -5 -3 -12 -19 -16 -36 -4 -17 -13 -42 -21 -57 -8 -15 -14 -36 -14 -47 0 -11 -7 -29 -15 -39 -8 -11 -15 -29 -15 -40 0 -12 -7 -30 -15 -40 -8 -11 -15 -30 -15 -42 0 -13 -4 -25 -9 -29 -5 -3 -12 -19 -16 -36 -4 -17 -13 -42 -21 -57 -8 -15 -14 -36 -14 -47 0 -11 -7 -29 -15 -39 -8 -11 -15 -29 -15 -40 0 -12 -7 -30 -15 -40 -8 -11 -15 -30 -15 -42 0 -13 -4 -25 -9 -29 -5 -3 -12 -19 -16 -36 -4 -17 -13 -42 -21 -57 -8 -15 -14 -36 -14 -47 0 -11 -7 -29 -15 -39 -8 -11 -15 -27 -15 -37 0 -9 -7 -30 -15 -45 -8 -16 -15 -38 -15 -49 0 -11 -7 -29 -15 -39 -8 -11 -15 -29 -15 -40 0 -12 -7 -30 -15 -40 -8 -11 -15 -30 -15 -42 0 -13 -4 -25 -9 -29 -5 -3 -12 -19 -16 -36 -4 -17 -13 -42 -21 -57 -8 -15 -14 -35 -14 -44 0 -9 -4 -19 -9 -23 -5 -3 -12 -19 -16 -36 -4 -17 -13 -42 -21 -57 -8 -15 -14 -34 -14 -42 0 -8 -7 -24 -15 -34 -8 -11 -15 -27 -15 -37 0 -9 -7 -30 -15 -45 -8 -16 -15 -38 -15 -49 0 -11 -7 -29 -15 -39 -8 -11 -15 -29 -15 -40 0 -12 -7 -30 -15 -40 -8 -11 -15 -27 -15 -37 0 -9 -7 -30 -15 -45 -8 -16 -15 -48 -15 -72 0 -24 -5 -52 -11 -63 -14 -28 -14 -219 1 -265 26 -82 61 -143 106 -188 26 -25 52 -46 58 -46 6 0 23 -6 37 -14 14 -7 39 -16 55 -21 70 -18 -21 -21 -246 -9 -129 7 -348 13 -487 13 -138 0 -267 3 -285 6 -48 9 -138 75 -172 125 -29 42 -30 48 -30 156 0 110 12 169 51 261 7 17 13 35 13 41 0 5 7 23 15 38 8 16 15 37 15 47 0 9 5 17 10 17 6 0 10 5 10 11 0 9 13 40 50 124 5 11 18 43 30 70 12 28 28 64 36 82 8 17 14 38 14 46 0 8 7 28 15 43 8 16 15 37 15 46 0 9 4 19 9 23 5 3 12 19 16 36 4 17 13 42 21 57 8 15 14 34 14 43 0 9 7 30 15 45 8 16 15 37 15 46 0 9 4 19 9 23 5 3 12 19 16 36 4 17 13 42 21 57 8 15 14 36 14 47 0 11 7 29 15 39 8 11 15 29 15 40 0 12 7 30 15 40 8 11 15 27 15 37 0 9 7 30 15 45 8 16 15 39 15 52 0 12 4 22 10 22 5 0 12 16 16 37 4 20 13 48 20 62 8 14 14 31 14 37 0 7 7 25 15 40 8 16 15 38 15 49 0 11 7 29 15 39 8 11 15 27 15 37 0 9 7 30 15 45 8 16 15 37 15 46 0 9 4 19 9 23 5 3 12 19 16 36 4 17 13 42 21 57 8 15 14 34 14 43 0 9 7 30 15 45 8 16 15 37 15 46 0 9 4 19 9 23 5 3 12 19 16 36 4 17 13 42 21 57 8 15 14 37 14 49 0 12 5 25 10 28 6 3 10 14 10 24 0 9 4 21 10 27 12 12 873 12 882 0z"/> <path d="M4262 5138 c-7 -7 -12 -24 -12 -38 0 -14 -7 -35 -15 -46 -8 -10 -15 -30 -15 -44 0 -14 -7 -34 -15 -44 -8 -11 -15 -29 -15 -40 0 -12 -7 -30 -15 -40 -8 -11 -15 -29 -15 -40 0 -12 -7 -30 -15 -40 -8 -11 -15 -29 -15 -40 0 -12 -7 -30 -15 -40 -8 -11 -15 -32 -15 -47 0 -14 -7 -32 -15 -39 -8 -7 -15 -25 -15 -40 0 -15 -7 -33 -15 -40 -8 -7 -15 -25 -15 -39 0 -15 -7 -36 -15 -47 -8 -10 -15 -28 -15 -40 0 -11 -7 -29 -15 -40 -8 -10 -15 -30 -15 -44 0 -14 -7 -34 -15 -44 -8 -11 -15 -29 -15 -40 0 -12 -7 -30 -15 -40 -8 -11 -15 -29 -15 -40 0 -12 -7 -30 -15 -40 -8 -11 -15 -30 -15 -42 0 -12 -7 -27 -15 -34 -8 -7 -15 -24 -15 -39 0 -14 -7 -35 -15 -45 -8 -11 -15 -32 -15 -47 0 -14 -7 -32 -15 -39 -8 -7 -15 -24 -15 -39 0 -14 -7 -35 -15 -45 -8 -11 -15 -29 -15 -40 0 -12 -7 -30 -15 -40 -8 -11 -15 -32 -15 -47 0 -14 -7 -32 -15 -39 -8 -7 -15 -24 -15 -39 0 -14 -7 -35 -15 -45 -8 -11 -15 -29 -15 -40 0 -12 -7 -30 -15 -40 -8 -11 -15 -29 -15 -40 0 -12 -7 -30 -15 -40 -8 -11 -15 -32 -15 -47 0 -14 -7 -32 -15 -39 -8 -7 -15 -27 -15 -45 0 -18 -7 -38 -15 -45 -8 -7 -15 -27 -15 -44 0 -18 -7 -41 -15 -52 -8 -10 -15 -38 -15 -60 0 -23 -7 -58 -16 -79 -12 -29 -14 -66 -12 -168 4 -121 12 -171 39 -217 5 -8 13 -25 18 -36 12 -26 93 -94 112 -94 8 0 24 -7 36 -15 19 -13 82 -16 400 -19 208 -3 650 -10 983 -17 604 -12 605 -12 665 9 54 18 93 37 143 67 32 19 113 95 183 172 32 34 119 161 119 172 0 5 7 14 15 21 8 7 15 20 15 30 0 10 7 20 15 24 8 3 15 16 15 29 0 14 7 30 15 37 8 7 15 22 15 34 0 12 7 31 15 42 8 10 15 31 15 45 0 15 7 32 15 39 8 7 15 24 15 39 0 14 7 35 15 45 8 11 15 29 15 40 0 12 7 30 15 40 8 11 15 29 15 40 0 12 7 30 15 40 8 11 15 29 15 40 0 12 7 30 15 40 8 11 15 32 15 47 0 14 7 32 15 39 8 7 15 25 15 40 0 15 7 33 15 40 8 7 15 25 15 40 0 15 7 33 15 40 8 7 15 24 15 39 0 14 7 35 15 45 8 11 15 32 15 47 0 14 7 32 15 39 8 7 15 24 15 39 0 14 7 35 15 45 8 11 15 29 15 40 0 12 7 30 15 40 8 11 15 29 15 40 0 12 7 30 15 40 8 11 15 29 15 40 0 12 7 30 15 40 8 11 15 29 15 40 0 12 7 30 15 40 8 11 15 29 15 40 0 12 7 30 15 40 8 11 15 32 15 47 0 14 7 32 15 39 8 7 15 25 15 40 0 15 7 33 15 40 8 7 15 25 15 39 0 15 7 36 15 47 8 10 15 30 15 44 0 14 7 34 15 44 8 11 15 29 15 40 0 12 7 30 15 40 8 11 15 29 15 40 0 12 7 30 15 40 8 11 15 29 15 40 0 12 7 30 15 40 8 11 15 30 15 42 0 12 7 27 15 34 8 7 15 23 15 35 0 12 7 28 15 35 8 7 15 21 15 31 0 19 -15 19 -447 17 l-447 -3 -7 -30 c-9 -40 -29 -94 -45 -127 -8 -14 -14 -37 -14 -51 0 -13 -7 -30 -15 -37 -8 -7 -15 -25 -15 -40 0 -15 -7 -33 -15 -40 -8 -7 -15 -24 -15 -39 0 -14 -7 -35 -15 -45 -8 -11 -15 -32 -15 -47 0 -14 -7 -32 -15 -39 -8 -7 -15 -27 -15 -45 0 -18 -7 -38 -15 -45 -8 -7 -15 -24 -15 -39 0 -14 -7 -35 -15 -45 -8 -11 -15 -31 -15 -45 0 -14 -7 -35 -15 -45 -8 -11 -15 -29 -15 -40 0 -12 -7 -30 -15 -40 -8 -11 -15 -29 -15 -41 0 -12 -7 -30 -15 -41 -8 -10 -15 -30 -15 -44 0 -14 -7 -34 -15 -44 -8 -11 -15 -29 -15 -40 0 -12 -7 -30 -15 -40 -8 -11 -15 -32 -15 -47 0 -14 -7 -32 -15 -39 -8 -7 -15 -25 -15 -40 0 -15 -7 -33 -15 -40 -8 -7 -15 -27 -15 -45 0 -18 -7 -38 -15 -45 -8 -7 -15 -25 -15 -39 0 -15 -7 -36 -15 -47 -8 -10 -15 -31 -15 -45 0 -15 -7 -32 -15 -39 -8 -7 -15 -25 -15 -39 0 -15 -7 -36 -15 -47 -8 -10 -15 -29 -15 -40 0 -12 -7 -27 -15 -34 -8 -7 -15 -20 -15 -30 0 -10 -7 -23 -15 -30 -8 -7 -15 -19 -15 -27 0 -19 -83 -129 -132 -174 -69 -63 -102 -69 -377 -70 -135 0 -304 -7 -378 -14 -133 -14 -135 -14 -164 7 -27 20 -29 26 -29 89 0 40 6 78 15 95 8 16 15 36 15 44 0 8 7 24 15 34 8 11 15 29 15 40 0 12 7 30 15 40 8 11 15 32 15 47 0 14 7 32 15 39 8 7 15 25 15 40 0 15 7 33 15 40 8 7 15 25 15 40 0 15 7 33 15 40 8 7 15 25 15 40 0 15 7 33 15 40 8 7 15 24 15 39 0 14 7 35 15 45 8 11 15 29 15 41 0 12 7 30 15 41 8 10 15 31 15 45 0 15 7 32 15 39 8 7 15 23 15 35 0 13 6 36 14 52 29 55 46 101 46 121 0 11 7 25 15 32 8 7 15 25 15 40 0 15 7 33 15 40 8 7 15 25 15 40 0 15 7 33 15 40 8 7 15 27 15 45 0 18 7 38 15 45 8 7 15 24 15 39 0 14 7 35 15 45 8 11 15 29 15 40 0 12 7 30 15 40 8 11 15 29 15 40 0 12 7 30 15 40 8 11 15 29 15 40 0 12 7 30 15 40 8 11 15 29 15 40 0 12 7 30 15 40 8 11 15 30 15 42 0 12 7 27 15 34 8 7 15 23 15 35 0 12 7 28 15 35 8 7 15 23 15 36 l0 24 -438 0 c-327 0 -441 -3 -450 -12z m695 -99 c20 -17 26 -85 10 -121 -8 -18 -22 -55 -32 -83 -9 -27 -25 -68 -34 -90 -10 -22 -28 -74 -41 -115 -13 -41 -29 -82 -36 -90 -6 -8 -14 -26 -17 -40 -10 -47 -85 -250 -101 -275 -9 -13 -16 -34 -16 -45 0 -11 -16 -59 -35 -107 -19 -48 -35 -95 -35 -104 0 -10 -4 -21 -10 -24 -5 -3 -18 -34 -29 -68 -11 -34 -32 -93 -46 -132 -15 -38 -31 -86 -37 -105 -5 -19 -18 -51 -28 -70 -10 -19 -28 -64 -40 -100 -11 -36 -25 -72 -30 -81 -14 -27 -23 -126 -15 -186 6 -51 12 -62 60 -112 l54 -56 148 0 c81 0 177 1 213 2 36 2 76 2 90 2 14 -1 84 2 155 6 214 11 311 44 397 132 52 54 138 176 138 197 0 7 8 24 18 37 10 13 25 47 34 74 9 28 31 88 48 135 43 117 77 213 101 290 12 36 31 88 44 115 12 28 32 82 43 120 11 39 33 102 47 140 15 39 36 99 47 135 11 36 33 97 49 135 15 39 37 97 48 130 48 143 71 200 80 203 6 2 11 19 11 37 0 37 39 91 75 105 11 4 147 10 300 11 l280 4 16 -34 c19 -40 16 -54 -37 -196 -20 -55 -51 -140 -69 -190 -47 -132 -114 -313 -135 -365 -10 -25 -27 -72 -38 -105 -18 -53 -31 -91 -73 -210 -6 -16 -22 -59 -35 -95 -48 -127 -66 -175 -76 -210 -5 -19 -14 -40 -18 -45 -5 -6 -23 -53 -40 -105 -17 -52 -37 -102 -44 -110 -7 -8 -18 -40 -25 -70 -7 -30 -19 -64 -26 -75 -7 -11 -27 -62 -44 -112 -35 -102 -110 -250 -141 -278 -11 -10 -20 -24 -20 -31 0 -8 -46 -61 -102 -118 -78 -78 -119 -111 -168 -135 l-65 -31 -610 1 c-335 0 -777 4 -980 7 l-370 7 -53 34 c-28 18 -52 38 -52 44 0 5 -10 24 -23 41 -34 45 -50 155 -37 249 28 185 45 258 80 327 10 19 21 55 25 80 4 25 15 56 25 70 9 14 25 54 34 90 10 36 25 76 33 88 8 13 20 45 28 70 22 79 126 374 140 396 7 12 18 43 24 70 7 27 21 67 32 89 12 22 27 63 34 91 8 28 23 69 34 91 12 21 21 46 21 55 0 18 31 102 54 145 9 17 16 39 16 50 0 11 9 36 19 56 11 19 38 91 60 159 50 147 52 152 88 176 29 20 39 20 523 31 41 1 80 -3 87 -8z"/> <path d="M5810 2380 c0 -5 -5 -10 -11 -10 -6 0 -21 -8 -34 -17 -12 -10 -33 -25 -45 -33 -12 -8 -28 -19 -34 -25 -12 -10 -47 -30 -121 -68 -22 -12 -42 -23 -45 -26 -3 -4 -23 -14 -45 -24 -22 -10 -53 -25 -68 -33 -16 -8 -36 -14 -46 -14 -9 0 -25 -6 -36 -14 -11 -7 -40 -16 -64 -19 -24 -3 -47 -10 -50 -15 -3 -5 -42 -12 -85 -16 -44 -4 -88 -12 -99 -17 -29 -16 -300 14 -360 39 -16 7 -37 12 -47 12 -10 0 -33 8 -52 17 -18 9 -45 22 -60 30 -14 7 -33 13 -41 13 -8 0 -20 7 -27 15 -7 8 -20 15 -30 15 -10 0 -23 7 -30 15 -7 8 -20 15 -30 15 -10 0 -23 7 -30 15 -7 8 -23 15 -37 15 -13 0 -31 7 -39 15 -9 8 -32 15 -53 15 -20 0 -43 6 -49 13 -9 8 -52 12 -142 12 -90 0 -133 -4 -142 -12 -6 -7 -29 -13 -49 -13 -21 0 -44 -7 -53 -15 -8 -8 -24 -15 -35 -15 -11 0 -26 -6 -33 -13 -7 -8 -26 -17 -41 -21 -15 -3 -27 -11 -27 -16 0 -6 -6 -10 -14 -10 -12 0 -84 -48 -181 -122 -62 -47 -326 -320 -386 -400 -35 -46 -67 -84 -71 -86 -4 -2 -8 -8 -8 -14 0 -12 -62 -91 -97 -124 -21 -20 -32 -54 -17 -54 12 0 75 42 107 71 17 16 35 29 40 29 5 0 23 11 41 25 18 14 38 25 44 25 6 0 17 6 24 13 15 14 133 72 166 82 12 3 22 11 22 16 0 5 13 9 29 9 16 0 34 7 41 15 7 8 27 15 44 15 18 0 41 7 52 15 10 8 35 15 55 15 20 0 58 7 85 15 57 17 245 20 275 5 10 -6 48 -13 84 -17 36 -3 70 -12 76 -19 6 -8 26 -14 44 -14 18 0 38 -7 45 -15 7 -8 21 -15 32 -15 11 0 26 -7 34 -15 9 -8 24 -15 33 -15 10 0 24 -7 31 -15 7 -8 20 -15 30 -15 10 0 23 -7 30 -15 7 -8 21 -15 32 -15 11 0 26 -7 34 -15 9 -8 28 -15 44 -15 16 0 30 -5 32 -12 2 -6 29 -15 59 -19 30 -4 79 -13 111 -18 55 -11 85 -8 227 18 30 6 59 15 65 21 5 5 18 10 28 10 20 0 101 40 106 52 2 4 12 8 23 8 11 0 22 7 25 15 4 8 13 15 21 15 8 0 35 16 61 35 26 19 61 45 77 57 32 24 303 293 345 343 14 17 37 46 50 65 14 19 33 43 42 54 10 11 30 38 45 60 26 38 61 82 91 112 16 17 15 34 -3 34 -8 0 -15 -4 -15 -10z m-1674 -135 c16 -8 44 -15 62 -15 18 0 40 -7 48 -15 9 -8 26 -15 40 -15 13 0 24 -4 24 -10 0 -5 12 -13 27 -16 15 -4 34 -13 41 -21 7 -7 22 -13 33 -13 10 0 19 -4 19 -10 0 -5 12 -13 28 -16 15 -4 36 -13 47 -20 11 -8 28 -14 38 -14 10 0 25 -7 33 -15 9 -8 30 -15 48 -15 17 0 38 -6 44 -12 7 -7 43 -16 80 -20 37 -4 98 -11 135 -16 42 -6 93 -6 130 0 34 5 95 12 135 17 40 4 78 13 84 19 7 7 23 12 38 12 14 0 38 7 54 15 15 8 34 15 42 15 18 0 192 91 251 130 24 16 48 30 54 30 16 0 10 -22 -13 -44 -13 -12 -41 -44 -63 -71 -132 -166 -431 -432 -537 -478 -16 -6 -28 -15 -28 -18 0 -4 -13 -10 -30 -14 -16 -4 -30 -11 -30 -16 0 -5 -10 -9 -23 -9 -13 0 -32 -7 -43 -15 -10 -8 -35 -15 -54 -15 -19 -1 -53 -7 -75 -15 -45 -16 -161 -20 -170 -6 -3 5 -31 12 -63 16 -31 3 -69 13 -84 21 -14 7 -35 14 -46 14 -11 0 -25 7 -32 15 -7 8 -23 15 -35 15 -13 0 -25 7 -29 15 -3 8 -15 15 -26 15 -12 0 -28 7 -36 15 -9 8 -24 15 -33 15 -10 0 -24 7 -31 15 -7 8 -22 15 -34 15 -11 0 -30 7 -40 15 -11 8 -32 15 -47 15 -15 0 -29 5 -31 10 -2 6 -30 14 -63 17 -33 3 -66 11 -74 17 -21 16 -306 15 -323 -1 -6 -7 -30 -13 -51 -13 -21 0 -53 -6 -70 -14 -18 -8 -49 -17 -69 -21 -21 -3 -38 -10 -38 -15 0 -6 -13 -10 -29 -10 -16 0 -34 -7 -41 -15 -7 -8 -21 -15 -31 -15 -9 0 -24 -6 -31 -13 -7 -8 -26 -17 -41 -21 -15 -3 -27 -11 -27 -16 0 -6 -6 -10 -13 -10 -8 0 -24 -9 -37 -20 -13 -11 -29 -20 -35 -20 -7 0 -15 -6 -18 -14 -7 -17 -47 -28 -47 -13 0 7 17 30 38 52 21 22 55 63 77 90 61 76 272 286 342 338 34 26 68 53 75 61 8 7 24 17 36 20 12 4 22 12 22 17 0 5 6 9 14 9 7 0 19 7 26 15 7 8 20 15 30 15 10 0 23 7 30 15 7 8 23 15 35 15 12 0 28 7 35 15 7 8 27 15 44 15 17 0 42 7 56 14 36 20 238 21 276 1z"/> </g> </svg> 