 <svg  version="1.0" xmlns="http://www.w3.org/2000/svg"  width="117.000000pt" height="109.000000pt" viewBox="0 0 117.000000 109.000000"  preserveAspectRatio="xMidYMid meet">  <g transform="translate(0.000000,109.000000) scale(0.100000,-0.100000)" fill="#aca973" stroke="none"> <path d="M210 883 c0 -196 1 -203 20 -203 19 0 20 7 20 180 l0 180 345 0 345 0 0 -180 c0 -153 2 -180 15 -180 13 0 15 29 15 203 l0 202 -380 0 -380 0 0 -202z"/> <path d="M495 985 c-3 -8 -7 -21 -9 -29 -7 -22 13 -86 42 -136 14 -25 25 -52 24 -61 -2 -9 5 -22 14 -30 15 -13 16 -11 9 11 -7 24 -7 24 11 9 60 -52 198 -86 211 -53 8 22 -17 73 -64 131 l-42 52 35 30 c19 17 32 36 29 42 -4 6 -21 -6 -39 -27 l-33 -38 -49 41 c-49 41 -104 73 -124 73 -6 0 -13 -7 -15 -15z m76 -28 c20 -12 51 -35 70 -51 31 -26 32 -29 15 -41 -10 -8 -15 -19 -10 -26 5 -9 11 -7 20 6 13 18 14 18 35 -1 28 -25 74 -93 83 -121 19 -60 -87 0 -183 103 -51 54 -101 128 -101 149 0 12 38 3 71 -18z m40 -157 c28 -28 69 -63 90 -77 22 -14 37 -28 34 -31 -16 -16 -168 122 -217 197 -40 64 -35 76 7 14 19 -28 58 -75 86 -103z"/> <path d="M530 694 c0 -8 27 -30 55 -45 13 -8 10 -1 -9 20 -28 29 -46 39 -46 25z"/> <path d="M89 657 c11 -14 32 -17 110 -17 107 0 185 -17 262 -56 66 -33 74 -25 9 10 -92 50 -158 67 -280 73 -106 6 -114 5 -101 -10z"/> <path d="M520 663 c1 -5 21 -23 45 -41 25 -18 42 -26 39 -18 -6 15 -67 66 -78 66 -3 0 -6 -3 -6 -7z"/> <path d="M866 654 c-58 -14 -182 -69 -192 -85 -2 -5 24 5 58 21 80 38 151 51 256 49 66 -1 87 2 100 15 15 15 10 16 -73 15 -50 0 -117 -7 -149 -15z"/> <path d="M520 628 c1 -13 81 -80 88 -73 7 7 -7 23 -48 55 -24 19 -40 26 -40 18z"/> <path d="M77 613 c-21 -3 -26 -8 -18 -17 8 -10 26 -11 73 -4 122 18 314 -15 396 -68 13 -9 26 -13 29 -10 9 9 -135 74 -202 91 -55 14 -207 18 -278 8z"/> <path d="M818 604 c-59 -14 -172 -66 -183 -83 -3 -6 23 3 58 20 101 47 203 64 320 53 71 -7 101 -6 108 2 6 8 0 13 -22 18 -54 10 -221 5 -281 -10z"/> <path d="M895 573 c-68 -6 -145 -27 -222 -61 l-82 -35 -84 36 c-46 20 -103 41 -128 46 -95 22 -272 8 -334 -27 -17 -9 -17 -10 2 -21 15 -8 39 -6 94 5 127 27 234 11 392 -60 l59 -26 77 34 c141 64 257 80 379 51 47 -11 68 -12 84 -4 28 15 14 26 -57 43 -66 16 -134 23 -180 19z"/> <path d="M210 430 l0 -70 380 0 380 0 0 71 c0 62 -2 70 -17 67 -15 -3 -17 -13 -15 -51 l3 -47 -345 0 -346 0 0 50 c0 43 -3 50 -20 50 -18 0 -20 -7 -20 -70z"/> <path d="M220 203 l0 -133 86 0 c76 0 85 2 82 18 -3 13 -14 17 -51 17 l-47 0 0 115 0 115 -35 0 -35 0 0 -132z"/> <path d="M640 318 c0 -14 8 -18 35 -18 l35 0 0 -115 0 -115 38 0 37 0 -3 115 -3 115 41 0 c32 0 41 3 38 16 -2 13 -22 16 -111 17 -96 2 -107 0 -107 -15z"/> <path d="M440 205 c-23 -69 -40 -128 -37 -132 14 -13 36 9 43 41 6 35 7 36 55 36 48 0 48 0 60 -40 12 -38 14 -40 52 -40 27 0 38 4 35 13 -3 6 -24 65 -48 130 l-43 117 -37 0 -37 0 -43 -125z m67 -23 c-42 -5 -42 -8 -10 88 2 9 12 -6 21 -35 l17 -50 -28 -3z"/> <path d="M890 200 l0 -130 38 0 37 0 0 130 0 130 -37 0 -38 0 0 -130z"/> </g> </svg> 