 <svg  version="1.0" xmlns="http://www.w3.org/2000/svg"  width="300.000000pt" height="215.000000pt" viewBox="0 0 300.000000 215.000000"  preserveAspectRatio="xMidYMid meet">  <g transform="translate(0.000000,215.000000) scale(0.050000,-0.050000)" fill="#fed22b" stroke="none"> <path d="M3124 4067 c-188 -93 -161 -302 73 -554 515 -554 411 -926 -287 -1036 -383 -60 -829 12 -1365 220 -651 254 -904 251 -1106 -16 -27 -35 -92 -105 -144 -155 -207 -200 -236 -273 -87 -216 203 78 352 0 637 -335 476 -560 933 -873 1277 -875 43 0 68 -25 139 -135 888 -1391 3040 -809 3159 855 12 166 31 253 89 416 41 113 70 221 66 240 -4 19 -28 -33 -53 -116 -58 -195 -88 -280 -95 -273 -4 3 -20 75 -36 160 -16 84 -61 234 -101 333 -60 149 -68 187 -49 222 28 52 119 317 119 346 0 48 -38 -27 -80 -158 -75 -231 -70 -229 -166 -86 -264 396 -859 745 -1254 734 l-70 -2 60 -16 c33 -9 135 -30 227 -47 410 -76 844 -396 1037 -766 l54 -104 -47 -102 c-64 -135 -91 -157 -122 -97 -134 256 -632 653 -934 745 -85 26 -45 -20 47 -54 275 -103 651 -406 819 -661 l77 -117 -35 -65 c-45 -83 -270 -372 -290 -372 -9 0 -60 65 -114 144 -115 168 -402 475 -556 594 -164 126 -151 98 27 -59 193 -171 372 -375 504 -577 l97 -149 -75 -78 c-88 -91 -371 -308 -485 -372 l-77 -44 -46 76 c-98 161 -307 479 -363 551 -102 130 -82 67 32 -98 143 -210 333 -519 333 -544 0 -28 -369 -176 -579 -233 l-181 -48 -47 83 c-26 46 -75 134 -110 194 -95 169 -74 72 25 -113 85 -159 87 -164 45 -176 -71 -22 -636 -37 -780 -22 l-134 14 -60 114 c-33 62 -54 91 -47 63 7 -27 25 -74 40 -103 44 -86 -5 -82 -206 14 -219 106 -387 275 -576 580 -217 351 -453 520 -836 599 -66 13 -62 51 17 174 162 250 486 255 1109 15 785 -303 1389 -348 1830 -139 493 235 521 629 79 1120 -336 374 -251 507 210 329 728 -281 1510 -317 2066 -95 81 33 104 79 30 58 -221 -59 -433 -80 -835 -81 -612 -1 -754 26 -1420 267 -196 71 -369 81 -476 29z m184 -52 c-8 -14 -25 -38 -38 -55 -39 -48 -52 -159 -26 -207 14 -23 23 -50 20 -58 -2 -8 5 -15 16 -15 11 0 20 -13 20 -28 0 -16 7 -32 16 -35 9 -4 41 -41 72 -82 31 -41 66 -69 77 -62 12 7 16 4 9 -7 -7 -11 7 -38 32 -60 369 -335 257 -794 -229 -933 -151 -44 -196 -40 -57 4 506 163 524 544 48 1053 -211 226 -244 396 -92 479 68 37 152 41 132 6z m1975 -1635 c59 -233 71 -475 26 -561 l-36 -69 -27 130 c-34 168 -80 306 -140 426 l-48 96 65 132 66 132 27 -68 c16 -37 45 -135 67 -218z m-160 -237 c22 -62 56 -184 77 -272 l39 -158 -42 -68 c-23 -37 -89 -125 -147 -195 l-104 -128 -64 195 c-35 107 -89 239 -120 293 l-56 97 98 122 c55 66 127 168 162 226 l63 105 27 -53 c16 -28 45 -103 67 -164z m-293 -652 c80 -239 64 -265 -314 -516 -180 -119 -173 -120 -255 30 -38 69 -104 183 -147 254 -43 71 -70 132 -59 136 67 22 356 234 474 348 l141 135 55 -119 c31 -66 78 -187 105 -268z m486 184 c-24 -129 -36 -145 -36 -47 0 64 28 152 48 152 4 0 -2 -47 -12 -105z m-56 -157 c0 -101 -79 -290 -197 -468 l-93 -140 -6 176 -6 176 81 92 c44 50 105 130 135 177 64 101 86 97 86 -13z m-1114 -413 c126 -234 134 -256 101 -279 -51 -38 -319 -138 -499 -188 l-154 -42 -67 77 c-132 153 -310 427 -283 435 14 4 80 19 146 32 139 28 384 115 500 176 114 60 107 66 256 -211z m774 -94 l0 -167 -137 -127 c-203 -188 -599 -397 -750 -397 -25 0 -116 47 -203 105 -155 103 -203 155 -144 155 58 0 386 103 508 159 l124 58 59 -104 c128 -223 167 -229 54 -8 l-70 135 65 33 c103 53 341 221 403 286 79 82 91 64 91 -128z m-2210 59 c154 0 327 6 384 14 89 12 106 9 115 -21 17 -53 192 -309 268 -393 82 -90 96 -81 -173 -119 -365 -50 -353 -53 -514 109 -76 77 -148 140 -159 140 -11 0 41 -62 116 -137 111 -111 130 -140 102 -150 -72 -28 -347 191 -515 411 -139 181 -139 177 -9 160 58 -8 231 -14 385 -14z m947 -579 c42 -38 127 -96 188 -129 142 -74 121 -83 -185 -83 -245 -1 -340 20 -520 112 -184 94 -188 107 -30 110 109 1 438 41 465 56 3 2 39 -28 82 -66z m-637 -61 c57 -38 98 -70 92 -70 -24 0 -272 118 -272 129 0 32 88 3 180 -59z"/> </g> </svg> 