 <svg  version="1.0" xmlns="http://www.w3.org/2000/svg"  width="300.000000pt" height="167.000000pt" viewBox="0 0 300.000000 167.000000"  preserveAspectRatio="xMidYMid meet">  <g transform="translate(0.000000,167.000000) scale(0.050000,-0.050000)" fill="#3583a3" stroke="none"> <path d="M4705 2838 c-402 -67 -473 -204 -462 -900 l7 -451 55 -82 c133 -201 302 -245 949 -245 l506 0 0 140 0 140 -471 0 c-707 0 -689 -15 -689 568 0 572 -1 571 612 572 427 0 448 6 515 147 66 139 86 133 -442 131 -261 -2 -522 -11 -580 -20z m-104 -1399 c43 -23 111 -139 81 -139 -11 0 -26 10 -33 21 -7 12 -34 30 -61 40 -33 12 -43 28 -34 52 9 24 6 29 -14 17 -17 -11 -21 -8 -12 7 18 28 24 28 73 2z"/> <path d="M284 2144 l6 -677 55 -82 c30 -46 97 -108 150 -139 l95 -56 466 -7 466 -6 -6 133 -6 132 -377 4 -376 4 -69 75 -68 74 0 611 0 610 -171 0 -171 0 6 -676z m347 -711 c1 -2 16 -27 35 -57 47 -76 43 -84 -26 -43 -33 20 -60 52 -60 72 0 21 -9 32 -20 25 -11 -7 -20 -2 -20 10 0 17 84 10 91 -7z"/> <path d="M1840 2000 l0 -820 175 0 175 0 0 820 0 820 -175 0 -175 0 0 -820z"/> <path d="M2520 2690 l0 -130 217 0 c190 0 224 -5 270 -41 l53 -42 0 -648 0 -649 175 0 175 0 -6 638 c-6 700 2 660 -136 711 -73 26 -52 28 297 30 l375 1 0 130 0 130 -710 0 -710 0 0 -130z"/> </g> </svg> 