 <svg  version="1.0" xmlns="http://www.w3.org/2000/svg"  width="268.000000pt" height="120.000000pt" viewBox="0 0 268.000000 120.000000"  preserveAspectRatio="xMidYMid meet">  <g transform="translate(0.000000,120.000000) scale(0.100000,-0.100000)" fill="#bf1e2c" stroke="none"> <path d="M240 1190 l-115 -6 117 -2 c148 -3 203 -14 303 -63 116 -56 216 -141 436 -370 417 -434 624 -576 816 -556 81 8 137 41 221 128 149 154 240 145 429 -41 l86 -85 -54 70 c-76 98 -228 254 -334 343 -226 190 -557 373 -718 397 -45 7 -49 6 -81 -30 -43 -46 -53 -45 -186 30 -242 138 -571 204 -920 185z m428 -80 c97 -53 186 -121 372 -286 268 -237 365 -308 473 -343 152 -49 227 -38 320 48 34 32 73 65 87 74 51 35 139 16 241 -53 66 -46 72 -59 16 -35 -89 37 -148 15 -267 -100 -127 -122 -179 -142 -291 -109 -134 39 -270 141 -564 423 -116 111 -251 236 -301 277 -86 70 -227 154 -259 154 -8 0 -16 4 -19 9 -13 20 123 -22 192 -59z m97 1 c94 -46 193 -119 364 -265 258 -222 355 -272 452 -229 24 11 58 37 74 57 79 98 80 99 148 94 64 -4 150 -37 197 -76 l25 -20 -41 11 c-56 14 -108 -6 -199 -79 -38 -31 -88 -65 -110 -75 -121 -56 -264 13 -570 275 -209 179 -324 266 -421 316 -73 38 -76 41 -39 36 22 -3 76 -23 120 -45z m111 -16 c83 -38 153 -84 323 -213 134 -102 171 -122 224 -122 30 0 40 7 76 55 63 83 124 94 236 41 93 -44 96 -52 15 -48 l-71 4 -67 -70 c-37 -39 -77 -75 -90 -82 -60 -30 -163 28 -413 231 -139 112 -256 194 -314 220 -25 11 -45 22 -45 25 0 9 56 -9 126 -41z m169 -49 c39 -18 112 -58 164 -89 52 -31 100 -57 107 -57 7 0 29 16 48 35 44 44 83 48 165 18 l44 -16 -38 -13 c-21 -7 -59 -33 -84 -58 -30 -30 -55 -46 -71 -46 -39 0 -115 40 -240 126 -63 43 -140 94 -170 112 -44 27 -49 33 -25 28 17 -4 62 -22 100 -40z"/> <path d="M2535 180 c3 -5 8 -10 11 -10 3 0 2 5 -1 10 -3 6 -8 10 -11 10 -3 0 -2 -4 1 -10z"/> </g> </svg> 