<?xml version="1.0" standalone="no"?>
<!DOCTYPE svg PUBLIC "-//W3C//DTD SVG 20010904//EN"
 "http://www.w3.org/TR/2001/REC-SVG-20010904/DTD/svg10.dtd">
<svg version="1.0" xmlns="http://www.w3.org/2000/svg"
 width="228.000000pt" height="227.000000pt" viewBox="0 0 228.000000 227.000000"
 preserveAspectRatio="xMidYMid meet">
<metadata>
Created by potrace 1.10, written by Peter Selinger 2001-2011
</metadata>
<g transform="translate(0.000000,227.000000) scale(0.100000,-0.100000)"
fill="#0c5c9f" stroke="none">
<path d="M245 2144 c-52 -19 -103 -69 -115 -114 -6 -22 -10 -366 -10 -909 0
-871 0 -875 21 -919 13 -26 38 -54 62 -70 l41 -27 911 0 912 0 36 28 c21 16
46 46 57 67 20 38 20 60 20 925 0 774 -2 890 -15 922 -21 50 -42 72 -90 94
-38 18 -87 19 -915 18 -741 0 -881 -3 -915 -15z m1816 -103 l29 -29 0 -882 0
-882 -29 -29 -29 -29 -881 0 -880 0 -28 24 -28 24 -3 875 c-1 570 1 884 8 901
21 56 0 55 943 56 l869 0 29 -29z"/>
<path d="M1146 1131 c-610 -610 -794 -800 -781 -805 27 -10 276 -7 360 5 97
13 195 38 310 79 l90 33 349 346 c384 381 378 373 431 556 41 143 55 248 55
423 0 89 -3 162 -8 162 -4 0 -366 -359 -806 -799z"/>
<path d="M1640 774 c-61 -26 -102 -65 -127 -122 -35 -74 -29 -165 14 -225 47
-68 103 -100 177 -105 80 -5 127 10 179 57 106 95 104 262 -4 354 -65 56 -165
73 -239 41z"/>
</g>
</svg>
